<svg width="680" height="280" viewBox="0 0 680 280" xmlns="http://www.w3.org/2000/svg">
<style>
  text { font-family: "Times New Roman", "Liberation Serif", serif; fill: #222; }
  .b { font-weight: bold; font-size: 13px; }
  .s { font-size: 11px; fill: #555; }
  .lbl { font-size: 11px; fill: #777; font-style: italic; }
  rect.box { fill: #f0f0f0; stroke: #999; stroke-width: 0.6; rx: 6; }
  line.ar { stroke: #666; stroke-width: 1.2; }
  polygon.ah { fill: #666; }
</style>
<defs>
<marker id="ar" viewBox="0 0 10 10" refX="8" refY="5" markerWidth="6" markerHeight="6" orient="auto-start-reverse">
<path d="M2 1L8 5L2 9" fill="none" stroke="#666" stroke-width="1.5" stroke-linecap="round" stroke-linejoin="round"/>
</marker>
</defs>

<rect class="box" x="10" y="30" width="128" height="210"/>
<text class="b" x="74" y="58" text-anchor="middle">Euclidean</text>
<text class="b" x="74" y="75" text-anchor="middle">coherent regime</text>
<text class="s" x="74" y="112" text-anchor="middle">&#x393;loop &#x226A; 1</text>
<text class="s" x="74" y="155" text-anchor="middle">Multiple winding</text>
<text class="s" x="74" y="170" text-anchor="middle">sectors coexist</text>
<text class="s" x="74" y="212" text-anchor="middle">No definite outcome</text>

<text class="lbl" x="175" y="105" text-anchor="middle">detector</text>
<text class="lbl" x="175" y="120" text-anchor="middle">enters BVP</text>
<line class="ar" x1="138" y1="140" x2="206" y2="140" marker-end="url(#ar)"/>

<rect class="box" x="210" y="30" width="115" height="210"/>
<text class="b" x="267" y="58" text-anchor="middle">Environmental</text>
<text class="b" x="267" y="75" text-anchor="middle">coupling</text>
<text class="s" x="267" y="112" text-anchor="middle">Neff &#x226B; 1 modes</text>
<text class="s" x="267" y="155" text-anchor="middle">Decoherence</text>
<text class="s" x="267" y="170" text-anchor="middle">functional</text>
<text class="s" x="267" y="185" text-anchor="middle">&#x393;[q] grows</text>

<text class="lbl" x="372" y="105" text-anchor="middle">Neff &#x3B3;t</text>
<text class="lbl" x="372" y="120" text-anchor="middle">&#x2192; 1</text>
<line class="ar" x1="325" y1="140" x2="398" y2="140" marker-end="url(#ar)"/>

<rect class="box" x="402" y="30" width="115" height="210"/>
<text class="b" x="459" y="58" text-anchor="middle">E &#x2192; L</text>
<text class="b" x="459" y="75" text-anchor="middle">transition</text>
<text class="s" x="459" y="112" text-anchor="middle">&#x393;loop &#x2273; 1</text>
<text class="s" x="459" y="155" text-anchor="middle">Off-diagonal</text>
<text class="s" x="459" y="170" text-anchor="middle">phases suppressed</text>
<text class="s" x="459" y="212" text-anchor="middle">Effective classicality</text>

<text class="lbl" x="558" y="105" text-anchor="middle">classical</text>
<text class="lbl" x="558" y="120" text-anchor="middle">limit</text>
<line class="ar" x1="517" y1="140" x2="580" y2="140" marker-end="url(#ar)"/>

<rect class="box" x="584" y="30" width="86" height="210"/>
<text class="b" x="627" y="55" text-anchor="middle">Effective</text>
<text class="b" x="627" y="72" text-anchor="middle">Lorentzian</text>
<text class="b" x="627" y="89" text-anchor="middle">outcome</text>
<text class="s" x="627" y="140" text-anchor="middle">Single branch</text>
<text class="s" x="627" y="155" text-anchor="middle">selected</text>
<text class="s" x="627" y="205" text-anchor="middle">"Collapse"</text>
</svg>
